<svg xmlns="http://www.w3.org/2000/svg" viewBox="0 0 100 100" width="100" height="100" fill="none" stroke="#000" stroke-linejoin="miter" stroke-linecap="butt">
<defs>
<clipPath id="ring"><path clip-rule="evenodd" d="M50 3.2A46.8 46.8 0 1 0 50 96.8A46.8 46.8 0 1 0 50 3.2ZM25.0 12.5H75.0V87.5H25.0Z"/></clipPath>
</defs>
<g clip-path="url(#ring)">
<path d="M0.0 0V100M0 0.0H100M12.5 0V100M0 12.5H100M25.0 0V100M0 25.0H100M37.5 0V100M0 37.5H100M50.0 0V100M0 50.0H100M62.5 0V100M0 62.5H100M75.0 0V100M0 75.0H100M87.5 0V100M0 87.5H100M100.0 0V100M0 100.0H100" stroke-width="1.7"/>
<path d="M3.4 9.1V3.4H9.1M21.6 3.4V9.1H15.9M28.4 9.1V3.4H34.1M46.6 3.4V9.1H40.9M53.4 9.1V3.4H59.1M71.6 3.4V9.1H65.9M78.4 9.1V3.4H84.1M96.6 3.4V9.1H90.9M9.1 15.9V21.6H3.4M15.9 21.6V15.9H21.6M34.1 15.9V21.6H28.4M40.9 21.6V15.9H46.6M59.1 15.9V21.6H53.4M65.9 21.6V15.9H71.6M84.1 15.9V21.6H78.4M90.9 21.6V15.9H96.6M3.4 34.1V28.4H9.1M21.6 28.4V34.1H15.9M28.4 34.1V28.4H34.1M46.6 28.4V34.1H40.9M53.4 34.1V28.4H59.1M71.6 28.4V34.1H65.9M78.4 34.1V28.4H84.1M96.6 28.4V34.1H90.9M9.1 40.9V46.6H3.4M15.9 46.6V40.9H21.6M34.1 40.9V46.6H28.4M40.9 46.6V40.9H46.6M59.1 40.9V46.6H53.4M65.9 46.6V40.9H71.6M84.1 40.9V46.6H78.4M90.9 46.6V40.9H96.6M3.4 59.1V53.4H9.1M21.6 53.4V59.1H15.9M28.4 59.1V53.4H34.1M46.6 53.4V59.1H40.9M53.4 59.1V53.4H59.1M71.6 53.4V59.1H65.9M78.4 59.1V53.4H84.1M96.6 53.4V59.1H90.9M9.1 65.9V71.6H3.4M15.9 71.6V65.9H21.6M34.1 65.9V71.6H28.4M40.9 71.6V65.9H46.6M59.1 65.9V71.6H53.4M65.9 71.6V65.9H71.6M84.1 65.9V71.6H78.4M90.9 71.6V65.9H96.6M3.4 84.1V78.4H9.1M21.6 78.4V84.1H15.9M28.4 84.1V78.4H34.1M46.6 78.4V84.1H40.9M53.4 84.1V78.4H59.1M71.6 78.4V84.1H65.9M78.4 84.1V78.4H84.1M96.6 78.4V84.1H90.9M9.1 90.9V96.6H3.4M15.9 96.6V90.9H21.6M34.1 90.9V96.6H28.4M40.9 96.6V90.9H46.6M59.1 90.9V96.6H53.4M65.9 96.6V90.9H71.6M84.1 90.9V96.6H78.4M90.9 96.6V90.9H96.6" stroke-width="1.7"/>
</g>
<circle cx="50" cy="50" r="47.6" stroke-width="3.2"/>
<rect x="25.0" y="12.5" width="50.0" height="75.0" stroke-width="2.6"/>
</svg>